<svg xmlns="http://www.w3.org/2000/svg" xmlns:xlink="http://www.w3.org/1999/xlink" width="30" height="30" viewBox="0 0 30 30"><defs><style>.a{fill:url(#a);}</style><linearGradient id="a" x1="0.5" x2="0.5" y2="1" gradientUnits="objectBoundingBox"><stop offset="0" stop-color="#c83e4d"/><stop offset="1" stop-color="#f4b860"/></linearGradient></defs><path class="a" d="M27.857,43.786H18.214V34.143A2.143,2.143,0,0,0,16.071,32H13.929a2.143,2.143,0,0,0-2.143,2.143v9.643H2.143A2.143,2.143,0,0,0,0,45.929v2.143a2.143,2.143,0,0,0,2.143,2.143h9.643v9.643A2.143,2.143,0,0,0,13.929,62h2.143a2.143,2.143,0,0,0,2.143-2.143V50.214h9.643A2.143,2.143,0,0,0,30,48.071V45.929A2.143,2.143,0,0,0,27.857,43.786Z" transform="translate(0 -32)"/></svg>