<svg xmlns="http://www.w3.org/2000/svg" xmlns:xlink="http://www.w3.org/1999/xlink" width="39" height="39" viewBox="0 0 39 39"><defs><style>.a{fill:url(#a);}</style><linearGradient id="a" x1="0.5" x2="0.5" y2="1" gradientUnits="objectBoundingBox"><stop offset="0" stop-color="#c83e4d"/><stop offset="1" stop-color="#f4b860"/></linearGradient></defs><path class="a" d="M19.5,8A19.5,19.5,0,1,0,39,27.5,19.5,19.5,0,0,0,19.5,8Zm0,7.548a6.919,6.919,0,1,1-6.919,6.919A6.919,6.919,0,0,1,19.5,15.548Zm0,27.048A15.067,15.067,0,0,1,7.981,37.234a8.767,8.767,0,0,1,7.745-4.7,1.924,1.924,0,0,1,.558.086,10.411,10.411,0,0,0,3.216.543,10.371,10.371,0,0,0,3.216-.543,1.924,1.924,0,0,1,.558-.086,8.767,8.767,0,0,1,7.745,4.7A15.067,15.067,0,0,1,19.5,42.6Z" transform="translate(0 -8)"/></svg>